<svg xmlns="http://www.w3.org/2000/svg" viewBox="0 0 1199.909 268.224"><path d="M66.9,168.073H0v-4.491H15.6V7.092H0V2.6H73.044c58.388,0,90.773,21.039,90.773,79.9C163.817,149.162,123.4,168.073,66.9,168.073Zm3.782-4.491c31.913,0,44.442-20.566,44.442-73.518V76.354c0-57.443-14.657-69.262-47.751-69.262H61.7v156.49Z" fill="#231f20"/><path d="M252.465,112.521H205.66l-18.2,51.061h17.73v4.491H169.02v-4.491h11.11l60.28-162.4h19.383l59.57,162.4h10.874v4.491h-77.3v-4.491h16.784Zm-44.677-5.2h42.786L230.008,45.387Z" fill="#231f20"/><path d="M416.753,2.6c41.6,0,65.716,9.456,65.716,38.768,0,22.694-14.183,34.749-39,38.768v.473c29.785,3.782,47.278,16.31,47.278,41.132,0,36.64-30.731,46.332-75.172,46.332h-69.5v-4.491h15.365V7.092H346.073V2.6Zm-9.219,77.3h6.146c17.02,0,21.984-10.873,21.984-30.257V38.532c0-22.694-4.018-31.44-20.566-31.44h-7.564Zm0,83.683h11.11c18.2,0,23.4-13.711,23.4-35.459V115.594c0-19.384-6.146-31.2-29.075-31.2h-5.437Z" fill="#231f20"/><path d="M571.352,84.391v79.191h15.365v4.491H509.891v-4.491h15.365V7.092H509.891V2.6H581.28c49.4,0,73.045,5.2,73.045,39.714,0,28.839-15.129,37.349-40.187,39.477V82.5c25.53,3.309,34.277,13.238,34.277,40.659v12.529c0,15.365.709,20.8,7.328,20.8,4.255,0,7.8-1.891,10.874-20.33l4.018.473c-3.546,26.949-10.165,33.8-32.149,33.8-29.784,0-38.531-9.929-38.531-43.26V109.921c0-16.784-3.309-25.53-16.075-25.53Zm0-4.492h7.564c17.493,0,26.476-9.691,26.476-35.221V37.822c0-26.475-9.692-30.73-26.239-30.73h-7.8Z" fill="#231f20"/><path d="M770.865,0c50.823,0,76.59,31.2,76.59,84.864,0,52.715-24.821,85.573-79.427,85.573-52.715,0-78.008-30.5-78.008-82.5C690.02,33.567,718.15,0,770.865,0Zm27.893,77.536c0-48.46-1.418-72.572-29.785-72.572-28.6,0-30.494,25.057-30.494,73.517V95.5c0,44.441,2.837,69.972,30.494,69.972,26.476,0,29.785-22.931,29.785-70.445Z" fill="#231f20"/><path d="M1006.07,168.073h-33.1L891.894,15.129V163.582h13v4.491H872.51v-4.491h13V7.092h-13V2.6h65.243l61.934,118.668V7.092h-13V2.6h32.385V7.092h-13Z" fill="#231f20"/><path d="M1119.063,168.073v-4.491h15.6l-35.222-62.407-37.586,62.407h25.058v4.491h-48.933v-4.491h15.838l41.368-69.5L1045.783,7.328h-12.765V2.6h79.663V7.328h-16.075l31.913,57.206,35.694-57.206h-24.584V2.6h48.46V7.328h-15.6l-39.949,63.825,53.66,92.429h13.711v4.491Z" fill="#231f20"/><path d="M322.093,207.7c16.028,0,25.49,3.58,25.49,16.965,0,14.492-11.167,18.244-27.706,18.244H319.2v22.847h10.656v1.62H297.03v-1.62h5.541V209.316H297.03V207.7Zm-2.9,33.589h1.79c7.161,0,9.037-4.945,9.037-14.834v-4.092c0-9.633-2.046-13.043-8.525-13.043h-2.3Z" fill="#231f20"/><path d="M401.8,207.7v1.62h-4.689v56.436H401.8v1.62h-26v-1.62h4.689V209.316H375.8V207.7Z" fill="#231f20"/><path d="M475.46,209.571l-25.234,55.84h2.9c9.974,0,18.414-6.564,21.909-18.841h1.535l-1.024,20.8H431.9v-1.62l25.49-56.181h-3.5c-10.315,0-13.9,3.5-20.375,16.966h-1.535l1.279-18.841h42.2Z" fill="#231f20"/><path d="M551.505,209.571l-25.234,55.84h2.9c9.975,0,18.415-6.564,21.91-18.841h1.535l-1.024,20.8H507.942v-1.62l25.49-56.181h-3.5c-10.315,0-13.9,3.5-20.375,16.966h-1.535l1.279-18.841h42.2Z" fill="#231f20"/><path d="M609.648,247.337h-16.88L586.2,265.752H592.6v1.62H579.554v-1.62h4.007L605.3,207.185h6.992l21.483,58.567H637.7v1.62H609.818v-1.62h6.053Zm-16.113-1.875h15.43l-7.417-22.336Z" fill="#231f20"/><path d="M722.179,233.953v6.735c0,15.686,4.518,25.831,13.811,25.831,6.9,0,12.446-7.161,17.22-18.244h1.535l-.6,19.011h-.938c-.6-1.108-.937-1.7-2.3-1.7-2.9,0-7.588,2.642-16.965,2.642-18.073,0-29.156-9.548-29.156-29.923,0-20.631,11.935-31.543,29.412-31.543,8.865,0,12.958,2.643,15.941,2.643,1.364,0,1.705-.6,2.3-1.705h.937l.683,18.5h-1.535c-4.689-10.486-9.8-17.732-17.135-17.732C726.783,208.463,722.179,216.306,722.179,233.953Z" fill="#231f20"/><path d="M814.08,206.758c18.329,0,27.621,11.253,27.621,30.6,0,19.011-8.951,30.861-28.645,30.861-19.011,0-28.133-11-28.133-29.752C784.923,218.864,795.069,206.758,814.08,206.758Zm10.059,27.963c0-17.477-.512-26.173-10.742-26.173-10.315,0-11,9.037-11,26.514V241.2c0,16.027,1.023,25.234,11,25.234,9.549,0,10.742-8.269,10.742-25.405Z" fill="#231f20"/><path d="M877.676,253.391c4.433,0,7.587,2.216,7.587,7.246,0,4.518-2.557,7.587-7.331,7.587-5.712,0-7.588-3.921-7.588-7.331C870.344,256.715,872.9,253.391,877.676,253.391Z" fill="#231f20"/><line x1="930.718" y1="234.126" x2="1141.208" y2="234.126" fill="#fff"/><path d="M930.713,242.126a7.512,7.512,0,0,1-1.56-.16,8.071,8.071,0,0,1-1.5-.45,8.1,8.1,0,0,1-2.59-1.73,7.827,7.827,0,0,1-1-1.22,8.293,8.293,0,0,1-1.19-2.88,7.685,7.685,0,0,1,0-3.12,8,8,0,0,1,2.19-4.1,7.688,7.688,0,0,1,1.21-.99,8.34,8.34,0,0,1,1.38-.74,8.071,8.071,0,0,1,1.5-.45,8.028,8.028,0,0,1,4.62.45,7.611,7.611,0,0,1,1.38.74,7.766,7.766,0,0,1,1.22.99,8.438,8.438,0,0,1,1,1.22,8.652,8.652,0,0,1,.73,1.38,7.879,7.879,0,0,1,.46,1.5,7.685,7.685,0,0,1,0,3.12,7.879,7.879,0,0,1-.46,1.5,8.652,8.652,0,0,1-.73,1.38,7.789,7.789,0,0,1-2.22,2.21,7.611,7.611,0,0,1-1.38.74,7.8,7.8,0,0,1-1.49.45A7.537,7.537,0,0,1,930.713,242.126Z" fill="#231f20"/><path d="M1103.133,234.126a8,8,0,0,1,8-8h0a8.006,8.006,0,0,1,8.01,8h0a8.006,8.006,0,0,1-8.01,8h0A8,8,0,0,1,1103.133,234.126Zm-30.07,0a8,8,0,0,1,8-8h0a8,8,0,0,1,8,8h0a8,8,0,0,1-8,8h0A8,8,0,0,1,1073.063,234.126Zm-30.07,0a8,8,0,0,1,8-8h0a8,8,0,0,1,8,8h0a8,8,0,0,1-8,8h0A8,8,0,0,1,1042.993,234.126Zm-30.07,0a8,8,0,0,1,8-8h0a8.006,8.006,0,0,1,8.01,8h0a8.006,8.006,0,0,1-8.01,8h0A8,8,0,0,1,1012.923,234.126Zm-30.07,0a8,8,0,0,1,8-8h0a8,8,0,0,1,8,8h0a8,8,0,0,1-8,8h0A8,8,0,0,1,982.853,234.126Zm-30.07,0a8,8,0,0,1,8-8h0a8,8,0,0,1,8,8h0a8,8,0,0,1-8,8h0A8,8,0,0,1,952.783,234.126Z" fill="#231f20"/><path d="M1141.2,242.126a7.512,7.512,0,0,1-1.56-.16,8.071,8.071,0,0,1-1.5-.45,8.34,8.34,0,0,1-1.38-.74,7.927,7.927,0,0,1-2.21-2.21,8.293,8.293,0,0,1-1.19-2.88,7.685,7.685,0,0,1,0-3.12,8,8,0,0,1,2.19-4.1,7.258,7.258,0,0,1,1.21-.99,8.34,8.34,0,0,1,1.38-.74,8.071,8.071,0,0,1,1.5-.45,7.854,7.854,0,0,1,3.13,0,7.754,7.754,0,0,1,1.49.45,8.049,8.049,0,0,1,1.39.74,8.173,8.173,0,0,1,1.21.99,7.766,7.766,0,0,1,.99,1.22,7.959,7.959,0,0,1,.74,1.38,8.757,8.757,0,0,1,.46,1.5,8.187,8.187,0,0,1,0,3.12,8.757,8.757,0,0,1-.46,1.5,7.959,7.959,0,0,1-.74,1.38,7.766,7.766,0,0,1-.99,1.22,8.857,8.857,0,0,1-1.21.99,8.049,8.049,0,0,1-1.39.74,7.754,7.754,0,0,1-1.49.45A7.537,7.537,0,0,1,1141.2,242.126Z" fill="#231f20"/><line x1="258.563" y1="234.126" x2="48.073" y2="234.126" fill="#fff"/><path d="M258.563,242.126a7.443,7.443,0,0,1-1.56-.16,7.85,7.85,0,0,1-1.5-.45,7.959,7.959,0,0,1-1.38-.74,7.589,7.589,0,0,1-2.21-2.21,7.959,7.959,0,0,1-.74-1.38,7.85,7.85,0,0,1-.45-1.5,7.685,7.685,0,0,1,0-3.12,7.85,7.85,0,0,1,.45-1.5,7.959,7.959,0,0,1,.74-1.38,7.589,7.589,0,0,1,2.21-2.21,7.959,7.959,0,0,1,1.38-.74,8.077,8.077,0,0,1,6.12,0,7.959,7.959,0,0,1,1.38.74,7.589,7.589,0,0,1,2.21,2.21,7.959,7.959,0,0,1,.74,1.38,7.85,7.85,0,0,1,.45,1.5,7.685,7.685,0,0,1,0,3.12,7.85,7.85,0,0,1-.45,1.5,7.959,7.959,0,0,1-.74,1.38,7.589,7.589,0,0,1-2.21,2.21,7.959,7.959,0,0,1-1.38.74,7.85,7.85,0,0,1-1.5.45A7.443,7.443,0,0,1,258.563,242.126Z" fill="#231f20"/><path d="M220.493,234.126a8,8,0,0,1,8-8h0a8,8,0,0,1,8,8h0a8,8,0,0,1-8,8h0A8,8,0,0,1,220.493,234.126Zm-30.07,0a8,8,0,0,1,8-8h0a8,8,0,0,1,8,8h0a8,8,0,0,1-8,8h0A8,8,0,0,1,190.423,234.126Zm-30.07,0a8,8,0,0,1,8-8h0a8,8,0,0,1,8,8h0a8,8,0,0,1-8,8h0A8,8,0,0,1,160.353,234.126Zm-30.07,0a8,8,0,0,1,8-8h0a8,8,0,0,1,8,8h0a8,8,0,0,1-8,8h0A8,8,0,0,1,130.283,234.126Zm-30.07,0a8,8,0,0,1,8-8h0a8,8,0,0,1,8,8h0a8,8,0,0,1-8,8h0A8,8,0,0,1,100.213,234.126Zm-30.07,0a8,8,0,0,1,8-8h0a8,8,0,0,1,8,8h0a8,8,0,0,1-8,8h0A8,8,0,0,1,70.143,234.126Z" fill="#231f20"/><path d="M48.073,242.126a7.443,7.443,0,0,1-1.56-.16,7.85,7.85,0,0,1-1.5-.45,7.959,7.959,0,0,1-1.38-.74,8.375,8.375,0,0,1-1.22-.99,7.766,7.766,0,0,1-.99-1.22,7.959,7.959,0,0,1-.74-1.38,7.85,7.85,0,0,1-.45-1.5,7.685,7.685,0,0,1,0-3.12,7.85,7.85,0,0,1,.45-1.5,7.959,7.959,0,0,1,.74-1.38,7.589,7.589,0,0,1,2.21-2.21,7.959,7.959,0,0,1,1.38-.74,8.077,8.077,0,0,1,6.12,0,7.959,7.959,0,0,1,1.38.74,7.589,7.589,0,0,1,2.21,2.21,7.959,7.959,0,0,1,.74,1.38,7.85,7.85,0,0,1,.45,1.5,7.685,7.685,0,0,1,0,3.12,7.85,7.85,0,0,1-.45,1.5,7.959,7.959,0,0,1-.74,1.38,7.766,7.766,0,0,1-.99,1.22,8.375,8.375,0,0,1-1.22.99,7.959,7.959,0,0,1-1.38.74,7.85,7.85,0,0,1-1.5.45A7.443,7.443,0,0,1,48.073,242.126Z" fill="#231f20"/></svg>