<svg width="249" height="56" viewBox="0 0 249 56" fill="none" xmlns="http://www.w3.org/2000/svg">
<path fill-rule="evenodd" clip-rule="evenodd" d="M175.86 17.6106C175.86 6.47448 170.513 0 159.966 0C149.027 0 143.19 6.96567 143.19 18.2483C143.19 29.0391 148.439 35.3683 159.378 35.3683C170.709 35.3683 175.86 28.5498 175.86 17.6106ZM159.574 1.03011C165.46 1.03011 165.755 6.03372 165.755 16.0899V19.7196C165.755 29.5795 165.068 34.338 159.574 34.338C153.835 34.338 153.246 29.0399 153.246 19.8177V16.286C153.246 6.22982 153.639 1.03011 159.574 1.03011ZM52.3904 23.3498H42.6776L38.9009 33.9458H42.5801V34.8777H35.0743V33.9458H37.3798L49.8888 0.245286H53.9111L66.2728 33.9458H68.5293V34.8777H52.4883V33.9458H55.9713L52.3904 23.3498ZM43.1192 22.2708H51.998L47.7302 9.41851L43.1192 22.2708ZM13.8828 34.8777H0V33.9458H3.23724V1.4717H0V0.539538H15.1578C27.2742 0.539538 33.9946 4.90546 33.9946 17.12C33.9946 30.9534 25.6074 34.8777 13.8828 34.8777ZM14.6676 33.9458C21.2901 33.9458 23.89 29.678 23.89 18.6897V15.8446C23.89 3.92432 20.8485 1.4717 13.9809 1.4717H12.8037V33.9458H14.6676ZM100.12 8.5845C100.12 2.5018 95.1153 0.539538 86.4827 0.539538H71.8155V1.4717H75.0044V33.9458H71.8159V34.8777H86.2382C95.4604 34.8777 101.838 32.8665 101.838 25.2631C101.838 20.1122 98.2075 17.5124 92.0266 16.7276V16.6295C97.1766 15.7954 100.12 13.2938 100.12 8.5845ZM85.845 16.5805H84.5696V1.4717H86.1392C89.5732 1.4717 90.407 3.28663 90.407 7.99598V10.3017C90.407 14.3242 89.3769 16.5805 85.845 16.5805ZM86.8751 33.946H84.5696L84.5692 17.5131H85.6974C90.4556 17.5131 91.7309 19.9651 91.7309 23.9875V26.5877C91.7309 31.1007 90.6519 33.946 86.8751 33.946ZM118.564 17.5124V33.9458H121.753V34.8777H105.81V33.9458H108.999V1.4717H105.81V0.539538H120.625C130.876 0.539538 135.783 1.61862 135.783 8.7808C135.783 14.7653 132.643 16.5313 127.443 16.9729V17.12C132.741 17.8067 134.556 19.8671 134.556 25.5574V28.1573C134.556 31.3458 134.703 32.4737 136.077 32.4737C136.96 32.4737 137.695 32.0813 138.333 28.2549L139.167 28.353C138.431 33.9454 137.058 35.3671 132.496 35.3671C126.315 35.3671 124.5 33.3066 124.5 26.3899V22.8103C124.5 19.3274 123.813 17.5124 121.164 17.5124H118.564ZM118.564 16.5803H120.134C123.764 16.5803 125.628 14.5692 125.628 9.27137V7.84865C125.628 2.35468 123.617 1.4717 120.183 1.4717H118.565L118.564 16.5803ZM208.775 34.8777H201.906L185.082 3.1395V33.9458H187.779V34.8777H181.059V33.9458H183.757V1.4717H181.059V0.539538H194.598L207.45 25.165V1.4717H204.753V0.539538H211.473V1.4717H208.775L208.775 34.8777ZM232.223 33.9458V34.8777H249V33.9458H246.155L235.02 14.7653L243.31 1.52067H246.547V0.539538H236.491V1.52067H241.592L234.185 13.3918L227.563 1.52067H230.898V0.539538H214.367V1.52067H217.016L227.268 19.5235L218.684 33.9458H215.397V34.8777H225.551V33.9458H220.351L228.151 20.9954L235.46 33.9458H232.223ZM66.8393 43.1009C70.1653 43.1009 72.1288 43.8438 72.1288 46.6214C72.1288 49.6288 69.8115 50.4074 66.3794 50.4074H66.2389V55.1485H68.4502V55.4846H61.6383V55.1485H62.7882V43.4363H61.6383V43.1009H66.8393ZM66.2375 50.0712H66.6089C68.0949 50.0712 68.4842 49.045 68.4842 46.9929V46.1437C68.4842 44.1447 68.0597 43.4371 66.7152 43.4371H66.2379L66.2375 50.0712ZM83.3797 43.4371V43.1009H77.9843V43.4363H78.9573V55.1485H77.9843V55.4846H83.3797V55.1485H82.4066V43.4371H83.3797ZM98.6653 43.4892L93.4288 55.0769H94.0306C96.1004 55.0769 97.8518 53.7147 98.5771 51.1671H98.8956L98.6831 55.4834H89.6259V55.1472L94.9155 43.4888H94.1892C92.0487 43.4888 91.3047 44.2151 89.9611 47.0095H89.6425L89.9079 43.0997H98.6651L98.6653 43.4892ZM109.209 55.0769L114.446 43.4892L114.445 43.0997H105.688L105.422 47.0095H105.741C107.085 44.2151 107.829 43.4888 109.969 43.4888H110.695L105.406 55.1472V55.4834H114.464L114.676 51.1671H114.358C113.633 53.7147 111.881 55.0769 109.811 55.0769H109.209ZM126.511 51.3262H123.009L121.646 55.1476H122.974V55.4838H120.266V55.1476H121.098L125.609 42.9941H127.06L131.518 55.1476H132.333V55.4838H126.547V55.1476H127.803L126.511 51.3262ZM123.168 50.9371H126.37L124.83 46.3021L123.168 50.9371ZM149.863 49.9465V48.5489C149.863 44.8868 150.819 43.2593 152.605 43.2603C154.127 43.2603 155.187 44.764 156.16 46.94H156.479L156.337 43.1009H156.143C156.019 43.3303 155.948 43.4548 155.665 43.4548C155.438 43.4548 155.18 43.3808 154.853 43.2873C154.289 43.126 153.522 42.9063 152.357 42.9063C148.731 42.9063 146.254 45.1707 146.254 49.452C146.254 53.6801 148.554 55.6614 152.304 55.6614C153.555 55.6614 154.403 55.435 155.01 55.2732C155.347 55.1832 155.61 55.1132 155.825 55.1132C156.108 55.1132 156.178 55.236 156.302 55.466H156.497L156.621 51.5209H156.303C155.312 53.8208 154.161 55.3068 152.729 55.3068C150.801 55.3068 149.863 53.2015 149.863 49.9465ZM168.934 42.9055C172.738 42.9055 174.666 45.2406 174.666 49.2554C174.666 53.2005 172.808 55.6596 168.722 55.6596C164.777 55.6596 162.884 53.3769 162.884 49.4856C162.884 45.4176 164.989 42.9055 168.934 42.9055ZM171.022 48.7082C171.022 45.0815 170.915 43.2769 168.792 43.2769C166.652 43.2769 166.51 45.1522 166.51 48.779V50.0527C166.51 53.3786 166.722 55.2892 168.792 55.2892C170.774 55.2892 171.022 53.5732 171.022 50.0172V48.7082ZM183.706 54.0862C183.706 53.0424 183.051 52.5825 182.131 52.5825C181.14 52.5825 180.61 53.2723 180.61 54.1393C180.61 54.8469 180.999 55.6606 182.184 55.6606C183.175 55.6606 183.706 55.0237 183.706 54.0862ZM192.814 50.2117C192.92 50.234 193.029 50.2451 193.137 50.2449C193.247 50.2452 193.356 50.2341 193.463 50.2117C193.569 50.1909 193.673 50.1596 193.772 50.1183C193.873 50.0771 193.969 50.0256 194.059 49.9647C194.242 49.8446 194.398 49.6886 194.519 49.5061C194.578 49.4154 194.629 49.3196 194.671 49.2197C194.713 49.1194 194.745 49.0152 194.766 48.9085C194.811 48.6949 194.811 48.4746 194.766 48.261C194.745 48.1544 194.713 48.0501 194.671 47.9498C194.629 47.8499 194.578 47.7541 194.519 47.6634C194.458 47.5727 194.389 47.4879 194.312 47.4102C194.235 47.3334 194.15 47.2645 194.059 47.2048C193.969 47.1439 193.873 47.0924 193.772 47.0512C193.469 46.9264 193.135 46.8939 192.814 46.9578C192.707 46.9788 192.603 47.0101 192.502 47.0512C192.402 47.0933 192.306 47.1447 192.216 47.2048C192.126 47.2645 192.041 47.3334 191.965 47.4102C191.733 47.6426 191.574 47.9387 191.51 48.261C191.466 48.4746 191.466 48.6949 191.51 48.9085C191.554 49.1215 191.638 49.3243 191.757 49.5061C191.818 49.5973 191.887 49.6821 191.965 49.7593C192.119 49.9126 192.302 50.0345 192.502 50.1183C192.603 50.1594 192.707 50.1907 192.814 50.2117ZM228.917 48.5847C228.917 48.1445 229.092 47.7222 229.403 47.4109C229.715 47.0995 230.137 46.9246 230.577 46.9246C231.018 46.9244 231.44 47.0992 231.752 47.4105C232.064 47.7218 232.239 48.1442 232.239 48.5847C232.239 49.0253 232.064 49.4477 231.752 49.759C231.44 50.0703 231.018 50.2451 230.577 50.2449C230.137 50.2449 229.715 50.07 229.403 49.7586C229.092 49.4473 228.917 49.025 228.917 48.5847ZM222.677 48.5847C222.677 48.1445 222.852 47.7222 223.163 47.4109C223.475 47.0995 223.897 46.9246 224.337 46.9246C224.778 46.9246 225.2 47.0995 225.511 47.4109C225.822 47.7222 225.997 48.1445 225.997 48.5847C225.997 49.025 225.822 49.4473 225.511 49.7586C225.2 50.07 224.778 50.2449 224.337 50.2449C223.897 50.2449 223.475 50.07 223.163 49.7586C222.852 49.4473 222.677 49.025 222.677 48.5847ZM216.437 48.5847C216.437 48.1445 216.612 47.7222 216.923 47.4109C217.235 47.0995 217.657 46.9246 218.097 46.9246C218.538 46.9246 218.96 47.0995 219.271 47.4109C219.582 47.7222 219.757 48.1445 219.757 48.5847C219.757 49.025 219.582 49.4473 219.271 49.7586C218.96 50.07 218.538 50.2449 218.097 50.2449C217.879 50.2449 217.663 50.2019 217.462 50.1185C217.261 50.0351 217.078 49.9128 216.923 49.7586C216.769 49.6045 216.647 49.4215 216.564 49.22C216.48 49.0186 216.437 48.8028 216.437 48.5847ZM210.197 48.5847C210.197 48.1445 210.372 47.7222 210.683 47.4109C210.995 47.0995 211.417 46.9246 211.857 46.9246C212.298 46.9244 212.72 47.0992 213.032 47.4105C213.344 47.7218 213.519 48.1442 213.519 48.5847C213.519 49.0253 213.344 49.4477 213.032 49.759C212.72 50.0703 212.298 50.2451 211.857 50.2449C211.639 50.2449 211.423 50.2019 211.222 50.1185C211.021 50.0351 210.838 49.9128 210.683 49.7586C210.529 49.6045 210.407 49.4215 210.324 49.22C210.24 49.0186 210.197 48.8028 210.197 48.5847ZM203.957 48.5847C203.957 48.1445 204.132 47.7222 204.443 47.4109C204.755 47.0995 205.177 46.9246 205.617 46.9246C206.058 46.9246 206.48 47.0995 206.791 47.4109C207.103 47.7222 207.277 48.1445 207.277 48.5847C207.277 49.025 207.103 49.4473 206.791 49.7586C206.48 50.07 206.058 50.2449 205.617 50.2449C205.177 50.2449 204.755 50.07 204.443 49.7586C204.132 49.4473 203.957 49.025 203.957 48.5847ZM197.717 48.5847C197.717 48.1445 197.892 47.7222 198.203 47.4109C198.515 47.0995 198.937 46.9246 199.377 46.9246C199.818 46.9246 200.24 47.0995 200.551 47.4109C200.863 47.7222 201.037 48.1445 201.037 48.5847C201.037 49.025 200.863 49.4473 200.551 49.7586C200.24 50.07 199.818 50.2449 199.377 50.2449C198.937 50.2449 198.515 50.07 198.203 49.7586C197.892 49.4473 197.717 49.025 197.717 48.5847ZM236.493 50.2117C236.599 50.234 236.708 50.2451 236.817 50.2449C236.926 50.2452 237.035 50.2341 237.142 50.2117C237.248 50.191 237.352 50.1597 237.452 50.1183C237.553 50.0767 237.649 50.0252 237.74 49.9647C237.83 49.9038 237.914 49.835 237.991 49.7593C238.068 49.6821 238.137 49.5972 238.197 49.5061C238.257 49.4159 238.308 49.32 238.35 49.2197C238.391 49.1191 238.423 49.0149 238.446 48.9085C238.487 48.6947 238.487 48.4748 238.446 48.261C238.423 48.1546 238.391 48.0504 238.35 47.9497C238.308 47.8495 238.257 47.7536 238.197 47.6634C238.137 47.5723 238.068 47.4874 237.991 47.4102C237.914 47.3339 237.83 47.2651 237.74 47.2048C237.649 47.1443 237.553 47.0928 237.452 47.0512C237.352 47.0098 237.248 46.9785 237.142 46.9578C236.928 46.9142 236.707 46.9142 236.493 46.9578C236.386 46.9788 236.282 47.0101 236.182 47.0512C236.082 47.0933 235.986 47.1447 235.895 47.2048C235.804 47.264 235.72 47.3329 235.644 47.4102C235.412 47.6426 235.254 47.9387 235.19 48.261C235.145 48.4746 235.145 48.6949 235.19 48.9085C235.233 49.1215 235.317 49.3243 235.437 49.5061C235.558 49.6879 235.713 49.8438 235.895 49.9647C235.986 50.0248 236.082 50.0762 236.182 50.1183C236.282 50.1594 236.386 50.1907 236.493 50.2117ZM53.3321 50.2117C53.4385 50.2341 53.547 50.2452 53.6558 50.2449C53.7646 50.2452 53.8731 50.2341 53.9795 50.2117C54.0861 50.191 54.1904 50.1597 54.2908 50.1183C54.3911 50.0766 54.487 50.0252 54.5772 49.9647C54.7602 49.8453 54.9164 49.6891 55.0358 49.5061C55.0963 49.4159 55.1477 49.32 55.1894 49.2197C55.2308 49.1194 55.2621 49.0151 55.2827 48.9085C55.327 48.6949 55.327 48.4746 55.2827 48.261C55.2621 48.1544 55.2308 48.0501 55.1894 47.9497C55.1477 47.8495 55.0963 47.7536 55.0358 47.6634C54.9164 47.4803 54.7602 47.3242 54.5772 47.2048C54.487 47.1443 54.3911 47.0929 54.2908 47.0512C53.8839 46.8846 53.4278 46.8846 53.0208 47.0512C52.9205 47.0929 52.8246 47.1443 52.7344 47.2048C52.5514 47.3242 52.3952 47.4803 52.2758 47.6634C52.2154 47.7536 52.1639 47.8495 52.1223 47.9497C52.0808 48.0501 52.0496 48.1544 52.0289 48.261C51.9846 48.4746 51.9846 48.6949 52.0289 48.9085C52.0496 49.0151 52.0808 49.1194 52.1223 49.2197C52.1639 49.32 52.2154 49.4159 52.2758 49.5061C52.3952 49.6891 52.5514 49.8453 52.7344 49.9647C52.8246 50.0252 52.9205 50.0766 53.0208 50.1183C53.1212 50.1597 53.2255 50.191 53.3321 50.2117ZM45.7557 48.5847C45.7557 48.1445 45.9306 47.7222 46.2419 47.4109C46.5533 47.0995 46.9755 46.9246 47.4158 46.9246C47.8561 46.9246 48.2784 47.0995 48.5897 47.4109C48.901 47.7222 49.0759 48.1445 49.0759 48.5847C49.0759 49.025 48.901 49.4473 48.5897 49.7586C48.2784 50.07 47.8561 50.2449 47.4158 50.2449C46.9755 50.2449 46.5533 50.07 46.2419 49.7586C45.9306 49.4473 45.7557 49.025 45.7557 48.5847ZM39.5157 48.5847C39.5157 48.1445 39.6906 47.7222 40.0019 47.4109C40.3133 47.0995 40.7355 46.9246 41.1758 46.9246C41.6161 46.9246 42.0384 47.0995 42.3497 47.4109C42.661 47.7222 42.836 48.1445 42.836 48.5847C42.836 49.025 42.661 49.4473 42.3497 49.7586C42.0384 50.07 41.6161 50.2449 41.1758 50.2449C40.7355 50.2449 40.3133 50.07 40.0019 49.7586C39.6906 49.4473 39.5157 49.025 39.5157 48.5847ZM33.2757 48.5847C33.2757 48.1445 33.4506 47.7222 33.762 47.4109C34.0733 47.0995 34.4956 46.9246 34.9358 46.9246C35.3761 46.9246 35.7984 47.0995 36.1097 47.4109C36.4211 47.7222 36.596 48.1445 36.596 48.5847C36.596 49.025 36.4211 49.4473 36.1097 49.7586C35.7984 50.07 35.3761 50.2449 34.9358 50.2449C34.4956 50.2449 34.0733 50.07 33.762 49.7586C33.4506 49.4473 33.2757 49.025 33.2757 48.5847ZM27.0357 48.5847C27.0357 48.1445 27.2106 47.7222 27.522 47.4109C27.8333 47.0995 28.2556 46.9246 28.6959 46.9246C29.1362 46.9246 29.5584 47.0995 29.8697 47.4109C30.1811 47.7222 30.356 48.1445 30.356 48.5847C30.356 49.025 30.1811 49.4473 29.8697 49.7586C29.5584 50.07 29.1362 50.2449 28.6959 50.2449C28.2556 50.2449 27.8333 50.07 27.522 49.7586C27.2106 49.4473 27.0357 49.025 27.0357 48.5847ZM20.7957 48.5847C20.7957 48.1445 20.9707 47.7222 21.282 47.4109C21.5933 47.0995 22.0156 46.9246 22.4559 46.9246C22.8962 46.9246 23.3184 47.0995 23.6298 47.4109C23.9411 47.7222 24.116 48.1445 24.116 48.5847C24.116 49.025 23.9411 49.4473 23.6298 49.7586C23.3184 50.07 22.8962 50.2449 22.4559 50.2449C22.2379 50.2449 22.022 50.2019 21.8206 50.1185C21.6192 50.0351 21.4361 49.9128 21.282 49.7586C21.1278 49.6045 21.0055 49.4215 20.9221 49.22C20.8387 49.0186 20.7957 48.8028 20.7957 48.5847ZM14.5558 48.5847C14.5558 48.1445 14.7307 47.7222 15.042 47.4109C15.3533 47.0995 15.7756 46.9246 16.2159 46.9246C16.6562 46.9246 17.0784 47.0995 17.3898 47.4109C17.7011 47.7222 17.876 48.1445 17.876 48.5847C17.876 49.025 17.7011 49.4473 17.3898 49.7586C17.0784 50.07 16.6562 50.2449 16.2159 50.2449C15.9979 50.2449 15.782 50.2019 15.5806 50.1185C15.3792 50.0351 15.1962 49.9128 15.042 49.7586C14.8878 49.6045 14.7656 49.4215 14.6821 49.22C14.5987 49.0186 14.5558 48.8028 14.5558 48.5847ZM9.65217 50.2117C9.75861 50.2341 9.86712 50.2452 9.97589 50.2449C10.0847 50.2452 10.1932 50.2341 10.2996 50.2117C10.4062 50.191 10.5105 50.1597 10.6109 50.1183C10.7112 50.0766 10.8071 50.0252 10.8973 49.9647C10.9879 49.9043 11.0727 49.8355 11.1504 49.7593C11.2273 49.6821 11.2961 49.5972 11.3559 49.5061C11.4163 49.4159 11.4678 49.32 11.5094 49.2197C11.5509 49.1194 11.5821 49.0151 11.6028 48.9085C11.6471 48.6949 11.6471 48.4746 11.6028 48.261C11.5821 48.1544 11.5509 48.0501 11.5094 47.9497C11.4678 47.8495 11.4163 47.7536 11.3559 47.6634C11.2365 47.4803 11.0803 47.3242 10.8973 47.2048C10.8071 47.1443 10.7112 47.0929 10.6109 47.0512C10.2039 46.8846 9.74784 46.8846 9.34089 47.0512C9.24062 47.0929 9.1447 47.1443 9.05452 47.2048C8.87149 47.3242 8.71531 47.4803 8.59591 47.6634C8.53544 47.7536 8.484 47.8495 8.44235 47.9497C8.40093 48.0501 8.36965 48.1544 8.34897 48.261C8.3047 48.4746 8.3047 48.6949 8.34897 48.9085C8.36965 49.0151 8.40093 49.1194 8.44235 49.2197C8.484 49.32 8.53544 49.4159 8.59591 49.5061C8.65566 49.5972 8.72449 49.6821 8.80135 49.7593C8.87912 49.8355 8.96388 49.9043 9.05452 49.9647C9.1447 50.0252 9.24062 50.0766 9.34089 50.1183C9.44128 50.1597 9.54556 50.191 9.65217 50.2117Z" fill="white"/>
</svg>
